<?xml version="1.0" standalone="no"?>
<!DOCTYPE svg PUBLIC "-//W3C//DTD SVG 20010904//EN"
 "http://www.w3.org/TR/2001/REC-SVG-20010904/DTD/svg10.dtd">
<svg version="1.0" xmlns="http://www.w3.org/2000/svg"
 width="500.000000pt" height="500.000000pt" viewBox="0 0 500.000000 500.000000"
 preserveAspectRatio="xMidYMid meet">
<metadata>
Created by potrace 1.11, written by Peter Selinger 2001-2013
</metadata>
<g transform="translate(0.000000,500.000000) scale(0.100000,-0.100000)"
fill="#000000" stroke="none">
<path d="M1130 4890 l0 -110 -340 0 -340 0 0 -115 0 -115 -120 0 -120 0 0
-2040 0 -2040 120 0 120 0 0 -120 0 -120 450 0 450 0 0 -115 0 -115 340 0 340
0 0 115 0 115 235 0 235 0 0 -115 0 -115 675 0 675 0 0 115 0 115 340 0 340 0
0 120 0 120 130 0 130 0 0 2040 0 2040 -130 0 -130 0 0 115 0 115 -1130 0
-1130 0 0 110 0 110 -120 0 -120 0 0 -110 0 -110 -340 0 -340 0 0 110 0 110
-110 0 -110 0 0 -110z m220 -340 l0 -230 235 0 235 0 0 115 0 115 105 0 105 0
0 115 0 115 120 0 120 0 0 -800 0 -800 115 0 115 0 0 685 0 685 110 0 110 0 0
-685 0 -685 115 0 115 0 0 460 0 460 115 0 115 0 0 -460 0 -460 110 0 110 0 0
460 0 460 115 0 115 0 0 -460 0 -460 110 0 110 0 0 460 0 460 115 0 115 0 0
-460 0 -460 120 0 120 0 0 685 0 685 105 0 105 0 0 -1365 0 -1365 -340 0 -340
0 0 -110 0 -110 -450 0 -450 0 0 -115 0 -115 565 0 565 0 0 115 0 115 225 0
225 0 0 -460 0 -460 -105 0 -105 0 0 -105 0 -105 -235 0 -235 0 0 -120 0 -120
-675 0 -675 0 0 120 0 120 -115 0 -115 0 0 225 0 225 115 0 115 0 0 115 0 115
-115 0 -115 0 0 225 0 225 -120 0 -120 0 0 -340 0 -340 -225 0 -225 0 0 565 0
565 -115 0 -115 0 0 -450 0 -450 -110 0 -110 0 0 790 0 790 225 0 225 0 0 120
0 120 -450 0 -450 0 0 -120 0 -120 110 0 110 0 0 -1025 0 -1025 -110 0 -110 0
0 -105 0 -105 -115 0 -115 0 0 1250 0 1250 115 0 115 0 0 105 0 105 -115 0
-115 0 0 120 0 120 115 0 115 0 0 115 0 115 -115 0 -115 0 0 450 0 450 115 0
115 0 0 -450 0 -450 225 0 225 0 0 110 0 110 -115 0 -115 0 0 340 0 340 115 0
115 0 0 115 0 115 110 0 110 0 0 -230z m1830 -115 l0 -115 -115 0 -115 0 0
115 0 115 115 0 115 0 0 -115z m450 0 l0 -115 -115 0 -115 0 0 115 0 115 115
0 115 0 0 -115z m450 0 l0 -115 -115 0 -115 0 0 115 0 115 115 0 115 0 0 -115z"/>
<path d="M1580 3760 l0 -110 120 0 120 0 0 110 0 110 -120 0 -120 0 0 -110z"/>
<path d="M680 3300 l0 -120 110 0 110 0 0 120 0 120 -110 0 -110 0 0 -120z"/>
<path d="M2500 3075 l0 -105 110 0 110 0 0 -120 0 -120 115 0 115 0 0 -115 0
-115 115 0 115 0 0 -110 0 -110 110 0 110 0 0 -115 0 -115 115 0 115 0 0 -115
0 -115 110 0 110 0 0 115 0 115 -110 0 -110 0 0 115 0 115 -115 0 -115 0 0
110 0 110 -110 0 -110 0 0 115 0 115 -115 0 -115 0 0 120 0 120 115 0 115 0 0
105 0 105 -115 0 -115 0 0 -105 0 -105 -115 0 -115 0 0 105 0 105 -110 0 -110
0 0 -105z"/>
<path d="M3400 3075 l0 -105 115 0 115 0 0 105 0 105 -115 0 -115 0 0 -105z"/>
<path d="M3850 3075 l0 -105 115 0 115 0 0 105 0 105 -115 0 -115 0 0 -105z"/>
<path d="M2500 1260 l0 -110 225 0 225 0 0 110 0 110 -225 0 -225 0 0 -110z"/>
</g>
</svg>
